<svg width="202" height="202" xmlns="http://www.w3.org/2000/svg" xmlns:xlink="http://www.w3.org/1999/xlink" xml:space="preserve" overflow="hidden"><g transform="translate(-1803 -1473)"><path d="M1803.5 1507C1803.5 1488.5 1818.5 1473.5 1837 1473.5L1971 1473.5C1989.5 1473.5 2004.5 1488.5 2004.5 1507L2004.5 1641C2004.5 1659.5 1989.5 1674.5 1971 1674.5L1837 1674.5C1818.5 1674.5 1803.5 1659.5 1803.5 1641Z" stroke="#2196F3" stroke-width="0.620735" stroke-miterlimit="8" fill="#2196F3" fill-rule="evenodd"/><g><g><g><path d="M1933.57 1612.81 1933.57 1527.25 1873.44 1527.25 1873.44 1612.81 1859.57 1612.81 1859.57 1619.75 1873.44 1619.75 1875.75 1619.75 1880.38 1619.75 1880.38 1534.19 1926.63 1534.19 1926.63 1619.75 1931.26 1619.75 1933.57 1619.75 1947.44 1619.75 1947.44 1612.81 1933.57 1612.81Z" stroke="#FFFFFF" stroke-width="1.15625" fill="#FFFFFF"/><path d="M1883.85 1619.75 1917.38 1615.12 1917.38 1542.28 1883.85 1537.66ZM1904.66 1578.12 1909.8 1578.12C1910.04 1576.87 1911.08 1575.93 1912.35 1575.81 1913.85 1575.81 1915.06 1577.37 1915.06 1579.28 1915.06 1581.2 1913.85 1582.75 1912.35 1582.75 1911.08 1582.64 1910.04 1581.69 1909.8 1580.44L1904.66 1580.44Z" stroke="#FFFFFF" stroke-width="1.15625" fill="#FFFFFF"/></g></g></g></g></svg>